# Blender 4.0.2
# www.blender.org
mtllib Monitor-modified.mtl
o Monitor
v 2.429025 -1.017963 0.016193
v 2.450305 -0.995313 0.016193
v -1.502321 -1.017963 0.016193
v 2.450305 1.625887 0.016693
v 2.429025 1.648536 0.016693
v -1.502322 1.648536 0.016693
v -1.523605 1.625887 0.016693
v -1.523605 -0.995313 0.016193
v -1.423216 1.541737 -0.150505
v 2.349915 1.541737 -0.150505
v -1.423216 -0.911093 -0.150906
v 2.349915 -0.911093 -0.150906
v -1.523605 1.625887 0.016693
v -1.523605 1.625927 -0.209507
v -1.523605 -0.995313 0.016193
v -1.523605 -0.995273 -0.210007
v 2.429025 1.648536 0.016693
v 2.429025 1.648576 -0.209507
v -1.502322 1.648536 0.016693
v -1.502322 1.648576 -0.209507
v 2.450305 -0.995313 0.016193
v 2.450305 -0.995273 -0.210007
v 2.450305 1.625887 0.016693
v 2.450305 1.625927 -0.209507
v -1.502321 -1.017963 0.016193
v -1.502321 -1.017913 -0.210007
v 2.429025 -1.017963 0.016193
v 2.429025 -1.017913 -0.210007
v -1.523605 1.625927 -0.209507
v -1.508554 1.632557 -0.209507
v -1.523605 -0.995273 -0.210007
v -1.423216 1.541747 -0.209507
v -1.423216 -0.911084 -0.210007
v -1.508554 -1.001903 -0.210007
v 2.429025 1.648576 -0.209507
v 2.435255 1.632557 -0.209507
v -1.502322 1.648576 -0.209507
v 2.349915 1.541747 -0.209507
v 2.450305 -0.995273 -0.210007
v 2.435255 -1.001903 -0.210007
v 2.450305 1.625927 -0.209507
v 2.349915 -0.911084 -0.210007
v -1.502321 -1.017913 -0.210007
v 2.429025 -1.017913 -0.210007
v -1.423216 1.541747 -0.209507
v -1.423216 1.541737 -0.150505
v -1.423216 -0.911084 -0.210007
v -1.423216 -0.911093 -0.150906
v 2.349915 1.541747 -0.209507
v 2.349915 1.541737 -0.150505
v -1.423216 1.541747 -0.209507
v -1.423216 1.541737 -0.150505
v 2.349915 -0.911084 -0.210007
v 2.349915 -0.911093 -0.150906
v 2.349915 1.541747 -0.209507
v 2.349915 1.541737 -0.150505
v -1.423216 -0.911084 -0.210007
v -1.423216 -0.911093 -0.150906
v 2.349915 -0.911084 -0.210007
v 2.349915 -0.911093 -0.150906
v -1.502322 1.648536 0.016693
v -1.502322 1.648576 -0.209507
v -1.523605 1.625887 0.016693
v -1.523605 1.625927 -0.209507
v -1.502321 -1.017913 -0.210007
v -1.502321 -1.017963 0.016193
v -1.523605 -0.995273 -0.210007
v -1.523605 -0.995313 0.016193
v 2.429025 -1.017963 0.016193
v 2.429025 -1.017913 -0.210007
v -0.824111 -1.035154 -0.224907
v -0.824111 -1.035154 -0.187305
v -0.925209 -1.035154 -0.224907
v -0.925209 -1.035154 -0.187305
v -0.925209 -0.981634 -0.187305
v -0.824111 -0.981634 -0.187305
v -0.925209 -0.981634 -0.224907
v -0.824111 -0.981634 -0.224907
v -0.925209 -0.981634 -0.187305
v -0.925209 -0.981634 -0.224907
v -0.824111 -0.981634 -0.187305
v -0.925209 -0.981634 -0.187305
v -0.824111 -0.981634 -0.224907
v -0.824111 -0.981634 -0.187305
v -0.947272 -1.035154 -0.224907
v -0.947272 -1.035154 -0.187305
v -1.048370 -1.035154 -0.224907
v -1.048370 -1.035154 -0.187305
v -1.048370 -0.981634 -0.187305
v -0.947272 -0.981634 -0.187305
v -1.048370 -0.981634 -0.224907
v -0.947272 -0.981634 -0.224907
v -1.048370 -0.981634 -0.187305
v -1.048370 -0.981634 -0.224907
v -0.947272 -0.981634 -0.187305
v -1.048370 -0.981634 -0.187305
v -0.947272 -0.981634 -0.224907
v -0.947272 -0.981634 -0.187305
v -1.079511 -1.035154 -0.224907
v -1.079511 -1.035154 -0.187305
v -1.309092 -1.035154 -0.224907
v -1.309092 -1.035154 -0.187305
v -1.309092 -0.981634 -0.187305
v -1.079511 -0.981634 -0.187305
v -1.309092 -0.981634 -0.224907
v -1.079511 -0.981634 -0.224907
v -1.309092 -0.981634 -0.187305
v -1.309092 -0.981634 -0.224907
v -1.079511 -0.981634 -0.187305
v -1.309092 -0.981634 -0.187305
v -1.079511 -0.981634 -0.224907
v -1.079511 -0.981634 -0.187305
v 1.466755 -0.298903 0.223694
v 1.466755 0.954517 0.223892
v -0.540052 -0.298903 0.223694
v -0.540052 0.954517 0.223892
v -0.901791 1.316267 0.160194
v -0.901791 1.316297 0.005295
v -0.901791 -0.660633 0.159794
v -0.901791 -0.660603 0.004993
v 1.828495 1.316267 0.160194
v 1.828495 1.316297 0.005295
v -0.901791 1.316297 0.005295
v 1.828495 -0.660633 0.159794
v 1.828495 -0.660603 0.004993
v 1.828495 1.316297 0.005295
v -0.901791 -0.660603 0.004993
v 1.828495 -0.660603 0.004993
v -0.323883 0.854847 0.609592
v -0.323882 0.854917 0.223892
v -0.323882 0.291767 0.609493
v -0.323882 0.291837 0.223793
v -0.254520 0.854847 0.609592
v -0.254520 0.854917 0.223892
v -0.254520 0.291767 0.609493
v -0.254520 0.291837 0.223793
v -0.254520 0.291767 0.609493
v -0.254520 0.291837 0.223793
v 1.181225 0.854847 0.609592
v 1.181225 0.854917 0.223892
v 1.181225 0.291767 0.609493
v 1.181225 0.291837 0.223793
v 1.250585 0.854847 0.609592
v 1.250585 0.854917 0.223892
v 1.250585 0.291767 0.609493
v 1.250585 0.291837 0.223793
v 1.250585 0.291767 0.609493
v 1.250585 0.291837 0.223793
v 1.674275 1.007386 0.609592
v 1.674275 0.139227 0.609394
v -0.747572 1.007386 0.609592
v -0.747572 0.139227 0.609394
v -0.747572 0.139207 0.677395
v -0.747572 1.007376 0.677593
v 1.674275 0.139207 0.677395
v -0.747572 0.139207 0.677395
v 1.674275 1.007376 0.677593
v 1.674275 0.139207 0.677395
v -0.747572 1.007376 0.677593
v 1.674275 1.007376 0.677593
vn -0.0000 -0.0000 1.0000
vn -0.0002 -0.0002 1.0000
vn -0.0000 -0.0002 1.0000
vn -0.0000 0.0002 -1.0000
vn -1.0000 -0.0000 -0.0000
vn -0.0000 1.0000 0.0002
vn 1.0000 -0.0000 -0.0000
vn -0.0000 -1.0000 -0.0002
vn -0.0001 0.0002 -1.0000
vn 0.0002 0.0002 -1.0000
vn -0.0002 0.0002 -1.0000
vn -0.0000 -0.0000 -1.0000
vn -0.7288 0.6848 0.0001
vn -0.7286 -0.6850 -0.0002
vn -0.7287 -0.6848 -0.0001
vn 0.7288 0.6847 0.0001
vn 0.7288 -0.6847 -0.0002
vn 0.7287 -0.6849 -0.0001
vn -0.0000 -1.0000 -0.0000
vn -0.0000 1.0000 -0.0000
vn -0.0000 -0.1740 0.9848
vn 0.1736 -0.0002 0.9848
vn 0.1738 -0.0002 0.9848
vn -0.0000 0.1734 0.9848
vn -0.1738 -0.0002 0.9848
vn -0.1736 -0.0002 0.9848
vn -0.0000 -1.0000 -0.0003
vn -0.0000 1.0000 0.0001
vt 0.545243 -0.793941
vt 0.547774 -0.791248
vt 0.077708 -0.793941
vt 0.547774 -0.479522
vt 0.545243 -0.476829
vt 0.077708 -0.476829
vt 0.075177 -0.479522
vt 0.075177 -0.791248
vt 0.588451 -0.021819
vt 0.023933 -0.021819
vt 0.588451 -0.388799
vt 0.023933 -0.388799
vt 0.666505 -0.025978
vt 0.633502 -0.025978
vt 0.666505 -0.408429
vt 0.633502 -0.408429
vt 0.666505 -0.412963
vt 0.633502 -0.412963
vt 0.666505 -0.986574
vt 0.633502 -0.986574
vt 0.717012 -0.412973
vt 0.684009 -0.412973
vt 0.717012 -0.986584
vt 0.684009 -0.986584
vt 0.605821 -0.439299
vt 0.603569 -0.438307
vt 0.605821 -0.831470
vt 0.590801 -0.451895
vt 0.590801 -0.818875
vt 0.603569 -0.832462
vt 0.014449 -0.435911
vt 0.013516 -0.438307
vt 0.602637 -0.435911
vt 0.026284 -0.451895
vt 0.011265 -0.831470
vt 0.013516 -0.832462
vt 0.011265 -0.439299
vt 0.026284 -0.818875
vt 0.602637 -0.834858
vt 0.014449 -0.834858
vt 0.693427 -0.011281
vt 0.684586 -0.011281
vt 0.693427 -0.378261
vt 0.684586 -0.378261
vt 0.729189 -0.983326
vt 0.738030 -0.983326
vt 0.729189 -0.418809
vt 0.738030 -0.418809
vt 0.684586 -0.378262
vt 0.693427 -0.378262
vt 0.666505 -0.021444
vt 0.633502 -0.021444
vt 0.926039 -0.294762
vt 0.949150 -0.294762
vt 0.926039 -0.232606
vt 0.949150 -0.232606
vt 0.870023 -0.232606
vt 0.870023 -0.294762
vt 0.893135 -0.232606
vt 0.893135 -0.294762
vt 0.949150 -0.199703
vt 0.926039 -0.199703
vt 0.982054 -0.294762
vt 0.982054 -0.232606
vt 0.926039 -0.327665
vt 0.949150 -0.327665
vt 0.946875 -0.127586
vt 0.961166 -0.127586
vt 0.946875 -0.040313
vt 0.961166 -0.040313
vt 0.912241 -0.040313
vt 0.912241 -0.127586
vt 0.926531 -0.040313
vt 0.926531 -0.127586
vt 0.961166 -0.019968
vt 0.946875 -0.019968
vt 0.981511 -0.127586
vt 0.981511 -0.040313
vt 0.946875 -0.147931
vt 0.961166 -0.147931
vt 0.939678 -0.557766
vt 0.805029 -0.557766
vt 0.939678 -0.773346
vt 0.805029 -0.773346
vt 0.765870 -0.812506
vt 0.766170 -0.829439
vt 0.978838 -0.812506
vt 0.978538 -0.829439
vt 0.765870 -0.518606
vt 0.748936 -0.518906
vt 0.748936 -0.812206
vt 0.978838 -0.518606
vt 0.978538 -0.501673
vt 0.766170 -0.501673
vt 0.995771 -0.812206
vt 0.995771 -0.518906
vt 0.765098 -0.313145
vt 0.716214 -0.313145
vt 0.765099 -0.384517
vt 0.716214 -0.384517
vt 0.765098 -0.304353
vt 0.716214 -0.304353
vt 0.765099 -0.232981
vt 0.716214 -0.232981
vt 0.765099 -0.393309
vt 0.716214 -0.393309
vt 0.769164 -0.130271
vt 0.720279 -0.130271
vt 0.769165 -0.201643
vt 0.720280 -0.201643
vt 0.769164 -0.121479
vt 0.720279 -0.121479
vt 0.769165 -0.050107
vt 0.720280 -0.050107
vt 0.769165 -0.210435
vt 0.720280 -0.210435
vt 0.028091 -0.871469
vt 0.028091 -0.977152
vt 0.322905 -0.871469
vt 0.322905 -0.977152
vt 0.331183 -0.977152
vt 0.331183 -0.871469
vt 0.028091 -0.985430
vt 0.322905 -0.985430
vt 0.019814 -0.871469
vt 0.019814 -0.977152
vt 0.322905 -0.863192
vt 0.028091 -0.863192
s 0
usemtl Meshesmonitor21Mtl
f 1/1/1 2/2/1 3/3/1
f 4/4/2 5/5/2 2/2/2
f 2/2/3 5/5/3 3/3/3
f 6/6/1 7/7/1 5/5/1
f 5/5/3 7/7/3 3/3/3
f 3/3/2 7/7/2 8/8/2
f 9/9/4 10/10/4 11/11/4
f 12/12/4 11/11/4 10/10/4
f 13/13/5 14/14/5 15/15/5
f 16/16/5 15/15/5 14/14/5
f 17/17/6 18/18/6 19/19/6
f 20/20/6 19/19/6 18/18/6
f 21/13/7 22/14/7 23/15/7
f 24/16/7 23/15/7 22/14/7
f 25/21/8 26/22/8 27/23/8
f 28/24/8 27/23/8 26/22/8
f 29/25/9 30/26/9 31/27/9
f 30/26/10 32/28/10 31/27/10
f 32/28/11 33/29/11 31/27/11
f 31/27/12 33/29/12 34/30/12
f 35/31/12 36/32/12 37/33/12
f 36/32/12 38/34/12 37/33/12
f 38/34/12 32/28/12 37/33/12
f 37/33/12 32/28/12 30/26/12
f 39/35/9 40/36/9 41/37/9
f 40/36/10 42/38/10 41/37/10
f 42/38/11 38/34/11 41/37/11
f 41/37/12 38/34/12 36/32/12
f 43/39/12 34/30/12 44/40/12
f 34/30/12 33/29/12 44/40/12
f 33/29/12 42/38/12 44/40/12
f 44/40/12 42/38/12 40/36/12
f 45/41/7 46/42/7 47/43/7
f 48/44/7 47/43/7 46/42/7
f 49/45/8 50/46/8 51/47/8
f 52/48/8 51/47/8 50/46/8
f 53/49/5 54/50/5 55/42/5
f 56/41/5 55/42/5 54/50/5
f 57/45/6 58/46/6 59/47/6
f 60/48/6 59/47/6 58/46/6
f 34/30/12 43/39/12 31/27/12
f 30/26/12 29/25/12 37/33/12
f 40/36/12 39/35/12 44/40/12
f 36/32/12 35/31/12 41/37/12
f 61/15/13 62/16/13 63/17/13
f 64/18/13 63/17/13 62/16/13
f 65/51/14 66/52/14 67/13/14
f 68/14/15 67/13/15 66/52/15
f 23/15/16 24/16/16 17/17/16
f 18/18/16 17/17/16 24/16/16
f 69/51/17 70/52/17 21/13/17
f 22/14/18 21/13/18 70/52/18
f 71/53/19 72/54/19 73/55/19
f 74/56/19 73/55/19 72/54/19
f 75/57/20 76/58/20 77/59/20
f 78/60/20 77/59/20 76/58/20
f 74/56/5 79/61/5 73/55/5
f 80/62/5 73/55/5 79/61/5
f 72/54/1 81/63/1 74/56/1
f 82/64/1 74/56/1 81/63/1
f 71/53/7 83/65/7 72/54/7
f 84/66/7 72/54/7 83/65/7
f 73/55/12 77/59/12 71/53/12
f 78/60/12 71/53/12 77/59/12
f 85/53/19 86/54/19 87/55/19
f 88/56/19 87/55/19 86/54/19
f 89/57/20 90/58/20 91/59/20
f 92/60/20 91/59/20 90/58/20
f 88/56/5 93/61/5 87/55/5
f 94/62/5 87/55/5 93/61/5
f 86/54/1 95/63/1 88/56/1
f 96/64/1 88/56/1 95/63/1
f 85/53/7 97/65/7 86/54/7
f 98/66/7 86/54/7 97/65/7
f 87/55/12 91/59/12 85/53/12
f 92/60/12 85/53/12 91/59/12
f 99/67/19 100/68/19 101/69/19
f 102/70/19 101/69/19 100/68/19
f 103/71/20 104/72/20 105/73/20
f 106/74/20 105/73/20 104/72/20
f 102/70/5 107/75/5 101/69/5
f 108/76/5 101/69/5 107/75/5
f 100/68/1 109/77/1 102/70/1
f 110/78/1 102/70/1 109/77/1
f 99/67/7 111/79/7 100/68/7
f 112/80/7 100/68/7 111/79/7
f 101/69/12 105/73/12 99/67/12
f 106/74/12 99/67/12 105/73/12
f 113/81/3 114/82/3 115/83/3
f 116/84/3 115/83/3 114/82/3
f 117/85/5 118/86/5 119/87/5
f 120/88/5 119/87/5 118/86/5
f 121/89/6 122/90/6 117/85/6
f 123/91/6 117/85/6 122/90/6
f 124/92/7 125/93/7 121/89/7
f 126/94/7 121/89/7 125/93/7
f 119/87/8 127/95/8 124/92/8
f 128/96/8 124/92/8 127/95/8
f 124/92/21 113/81/21 119/87/21
f 115/83/21 119/87/21 113/81/21
f 121/89/22 114/82/22 124/92/22
f 113/81/23 124/92/23 114/82/23
f 117/85/24 116/84/24 121/89/24
f 114/82/24 121/89/24 116/84/24
f 119/87/25 115/83/25 117/85/25
f 116/84/26 117/85/26 115/83/26
f 129/97/5 130/98/5 131/99/5
f 132/100/5 131/99/5 130/98/5
f 133/101/6 134/102/6 129/97/6
f 130/98/6 129/97/6 134/102/6
f 135/103/7 136/104/7 133/101/7
f 134/102/7 133/101/7 136/104/7
f 131/99/8 132/100/8 137/105/8
f 138/106/8 137/105/8 132/100/8
f 139/107/5 140/108/5 141/109/5
f 142/110/5 141/109/5 140/108/5
f 143/111/6 144/112/6 139/107/6
f 140/108/6 139/107/6 144/112/6
f 145/113/7 146/114/7 143/111/7
f 144/112/7 143/111/7 146/114/7
f 141/109/8 142/110/8 147/115/8
f 148/116/8 147/115/8 142/110/8
f 149/117/4 150/118/4 151/119/4
f 152/120/4 151/119/4 150/118/4
f 152/120/5 153/121/5 151/119/5
f 154/122/5 151/119/5 153/121/5
f 150/118/27 155/123/27 152/120/27
f 156/124/27 152/120/27 155/123/27
f 149/117/7 157/125/7 150/118/7
f 158/126/7 150/118/7 157/125/7
f 151/119/28 159/127/28 149/117/28
f 160/128/28 149/117/28 159/127/28
